Coordinates
version=1
nRows=9
nColumns=24
inDegrees=yes

Units are S.I. units (second, meters, Newtons, ...)
Angles are in degrees.

endheader
time	pelvis_tilt	pelvis_list	pelvis_rotation	pelvis_tx	pelvis_ty	pelvis_tz	hip_flexion_r	hip_adduction_r	hip_rotation_r	knee_angle_r	ankle_angle_r	subtalar_angle_r	mtp_angle_r	hip_flexion_l	hip_adduction_l	hip_rotation_l	knee_angle_l	ankle_angle_l	subtalar_angle_l	mtp_angle_l	lumbar_extension	lumbar_bending	lumbar_rotation
      4.31500000	    -12.09549924	      0.52946079	     -5.52558436	      0.12047225	     -0.00505998	      0.03707134	      3.28607158	      4.89950653	      4.03749331	     -3.02867707	      0.53296524	      2.55564899	      9.22413061	     34.66702831	     -6.70859501	    -17.09006130	    -39.99452132	     -7.01111665	      5.76595103	     19.31655904	     11.10176361	      1.44531257	      7.90324346
      4.32000000	    -12.14470609	      0.59463623	     -5.59305678	      0.12514621	     -0.00560212	      0.03740212	      3.07430765	      4.82774229	      4.10888829	     -3.06942933	      0.70556282	      2.56336583	      9.35445836	     34.91079877	     -6.49258583	    -17.19601539	    -38.86573028	     -6.97332470	      5.95886800	     19.25749266	     11.12663273	      1.36496974	      7.97509573
      4.32500000	    -12.10315430	      0.69483174	     -5.76917009	      0.12987026	     -0.00602360	      0.03785764	      2.76188946	      4.70978279	      4.24844770	     -3.09328794	      0.86121222	      2.67004483	      9.62711582	     34.99542594	     -6.29784749	    -17.46268825	    -37.67853242	     -6.95360183	      6.15842008	     19.21565151	     11.06583510	      1.26267748	      8.17528987
      4.33000000	    -12.08314139	      0.77557662	     -5.88560434	      0.13455297	     -0.00649685	      0.03822641	      2.48245017	      4.61002635	      4.32913769	     -3.13342971	      1.00799284	      2.73286245	      9.93535112	     35.11300763	     -6.08004557	    -17.64050681	    -36.48125885	     -6.97923635	      6.43177083	     19.21486736	     11.01277258	      1.17066169	      8.32902008
      4.33500000	    -12.09080344	      0.85010204	     -5.99792685	      0.13923909	     -0.00700694	      0.03857732	      2.23572938	      4.51691745	      4.39634177	     -3.17736833	      1.14707506	      2.80700497	     10.25359131	     35.25157831	     -5.86589981	    -17.81994924	    -35.26767731	     -7.05385601	      6.74677717	     19.24194494	     10.98651293	      1.08662293	      8.45810141
      4.34000000	    -12.15132084	      0.91320323	     -6.09922577	      0.14397436	     -0.00758797	      0.03892307	      2.04078459	      4.43915618	      4.47784716	     -3.22444160	      1.30233524	      2.89343400	     10.43218211	     35.44126844	     -5.66535679	    -18.01733054	    -34.05287565	     -7.15445171	      7.11069601	     19.25368563	     11.02889776	      1.01350801	      8.54580441
      4.34500000	    -12.19973036	      0.98141563	     -6.20742431	      0.14869660	     -0.00816206	      0.03924559	      1.84349714	      4.35113593	      4.54996036	     -3.28863966	      1.47024898	      3.00856350	     10.61316186	     35.60011011	     -5.45377834	    -18.21527500	    -32.80901937	     -7.28123355	      7.52209026	     19.31205220	     11.04810914	      0.94019792	      8.66991615
      4.35000000	    -12.21254921	      1.05552717	     -6.35734001	      0.15343143	     -0.00870201	      0.03961553	      1.61443347	      4.25160973	      4.61050432	     -3.36037491	      1.64647571	      3.20581156	     10.86633993	     35.68835955	     -5.25076469	    -18.44406563	    -31.52165859	     -7.43244423	      7.95791148	     19.49014830	     11.03109833	      0.86584924	      8.86621264
      4.35500000	    -12.26198931	      1.12797769	     -6.47291377	      0.15817087	     -0.00928443	      0.03995053	      1.42544475	      4.15447602	      4.64521958	     -3.43343953	      1.81793110	      3.39348851	     11.10359806	     35.81493311	     -5.02980726	    -18.64059422	    -30.22260435	     -7.64593237	      8.42845284	     19.68887029	     11.05229467	      0.78519542	      8.99894973
